<?xml version="1.0" standalone="no"?>
<!DOCTYPE svg PUBLIC "-//W3C//DTD SVG 20010904//EN"
 "http://www.w3.org/TR/2001/REC-SVG-20010904/DTD/svg10.dtd">
<svg version="1.0" xmlns="http://www.w3.org/2000/svg"
 width="700.000000pt" height="700.000000pt" viewBox="0 0 700.000000 700.000000"
 preserveAspectRatio="xMidYMid meet">
<metadata>
Created by potrace 1.14, written by Peter Selinger 2001-2017
</metadata>
<g transform="translate(0.000000,700.000000) scale(0.100000,-0.100000)"
fill="#000000" stroke="none">
<path d="M1490 6144 c-45 -19 -54 -41 -65 -157 -3 -39 -8 -83 -10 -97 -2 -14
-7 -54 -10 -90 -3 -36 -8 -81 -10 -100 -2 -19 -6 -64 -10 -100 -3 -36 -8 -81
-10 -100 -2 -19 -7 -64 -10 -100 -3 -36 -8 -81 -10 -100 -2 -19 -7 -69 -11
-110 -3 -41 -7 -82 -9 -90 -2 -8 -6 -51 -9 -95 -4 -44 -9 -91 -11 -105 -2 -14
-6 -56 -10 -95 -3 -38 -8 -88 -11 -110 -2 -22 -7 -67 -10 -100 -3 -33 -7 -73
-8 -90 -2 -16 -6 -64 -10 -105 -4 -41 -9 -86 -11 -100 -2 -14 -7 -59 -10 -100
-3 -41 -8 -91 -10 -110 -2 -19 -7 -64 -10 -100 -4 -36 -8 -76 -10 -90 -2 -14
-6 -56 -10 -95 -3 -38 -8 -86 -10 -105 -2 -19 -7 -67 -10 -106 -3 -39 -7 -80
-9 -90 -2 -10 -7 -53 -11 -94 -7 -85 -12 -132 -20 -207 -3 -29 -7 -79 -11
-110 -3 -32 -7 -71 -9 -88 -2 -16 -7 -64 -10 -105 -3 -41 -8 -86 -10 -100 -2
-14 -6 -59 -10 -100 -3 -41 -8 -91 -10 -110 -3 -19 -7 -60 -10 -90 -8 -89 -16
-173 -20 -200 -2 -14 -7 -59 -11 -100 -3 -41 -7 -86 -9 -100 -1 -14 -5 -56 -9
-95 -4 -38 -9 -86 -11 -105 -2 -19 -7 -64 -10 -100 -3 -36 -8 -83 -10 -105 -2
-22 -7 -67 -10 -100 -10 -98 -15 -148 -20 -190 -3 -22 -7 -71 -11 -110 -7 -86
-12 -131 -21 -215 -12 -102 -9 -176 7 -196 8 -9 29 -22 45 -29 23 -9 620 -12
2527 -11 l2497 1 27 21 c15 11 32 34 36 50 7 25 4 108 -7 184 -2 14 -6 59 -10
100 -4 41 -8 86 -10 100 -2 14 -7 61 -10 104 -4 44 -8 87 -10 96 -2 10 -6 53
-10 96 -4 43 -8 90 -10 104 -2 14 -7 61 -11 105 -3 44 -8 87 -9 96 -2 9 -6 52
-10 95 -4 43 -8 90 -10 103 -2 12 -7 60 -11 105 -7 90 -22 128 -59 152 -33 22
-91 12 -123 -20 -31 -31 -32 -60 -8 -291 2 -16 7 -64 10 -105 4 -41 9 -86 11
-100 4 -24 12 -114 21 -210 2 -25 6 -65 9 -90 4 -43 6 -61 21 -215 3 -38 8
-78 9 -87 2 -9 7 -55 10 -102 l7 -86 -100 0 -100 0 -7 63 c-4 34 -9 80 -11
102 -2 22 -6 60 -9 85 -2 25 -7 72 -10 105 -3 33 -7 80 -10 105 -5 44 -8 79
-19 190 -3 30 -11 102 -16 160 -6 58 -13 123 -15 145 -2 22 -7 67 -10 100 -3
33 -8 78 -10 100 -2 22 -7 72 -10 110 -3 39 -8 87 -10 108 -10 79 -14 114 -20
182 -4 39 -8 81 -10 95 -2 14 -6 61 -10 105 -3 44 -7 91 -10 105 -2 14 -7 57
-10 95 -3 39 -8 88 -10 110 -3 22 -7 60 -10 85 -2 25 -6 70 -10 100 -3 30 -19
192 -35 360 -17 168 -32 325 -35 350 -2 25 -12 115 -20 200 -9 85 -17 173 -20
195 -2 22 -11 114 -20 205 -15 157 -18 185 -29 290 -5 40 -27 267 -42 420 -3
30 -9 96 -14 145 -6 50 -12 115 -15 145 -3 30 -7 71 -10 90 -2 19 -7 67 -10
105 -3 39 -8 87 -11 108 l-6 37 104 0 c77 0 105 -3 105 -12 1 -23 13 -162 17
-193 3 -16 7 -63 11 -103 4 -41 8 -86 10 -100 2 -15 6 -63 10 -107 3 -44 8
-91 10 -105 5 -31 13 -107 20 -185 9 -94 20 -208 30 -300 2 -27 7 -72 10 -100
3 -27 7 -77 10 -110 3 -33 7 -76 10 -95 3 -19 7 -64 10 -100 3 -36 7 -81 10
-100 2 -19 7 -64 10 -100 3 -36 8 -81 10 -100 3 -19 7 -63 10 -96 3 -34 7 -79
10 -100 2 -22 7 -68 10 -104 3 -36 7 -81 10 -100 3 -19 7 -63 10 -96 3 -34 7
-79 10 -100 2 -22 7 -68 10 -104 3 -36 7 -81 10 -100 3 -19 7 -64 10 -100 3
-36 7 -81 9 -100 3 -19 7 -64 11 -100 3 -36 8 -81 10 -100 3 -19 7 -66 10
-105 12 -145 23 -177 70 -199 44 -21 89 -11 121 27 25 30 26 34 20 124 -4 50
-9 101 -11 112 -2 10 -6 56 -10 101 -4 45 -8 90 -10 99 -2 10 -6 54 -10 97 -4
43 -8 90 -10 104 -2 14 -7 61 -11 105 -3 44 -8 87 -9 96 -2 9 -6 52 -10 95 -4
43 -8 90 -10 104 -2 14 -7 61 -10 104 -4 44 -8 87 -10 96 -2 9 -6 54 -10 101
-4 46 -8 91 -10 100 -2 9 -6 52 -10 95 -4 43 -8 90 -10 104 -2 14 -7 57 -10
95 -3 39 -8 86 -10 105 -3 19 -7 64 -10 100 -3 36 -7 81 -10 100 -2 19 -7 64
-10 100 -4 36 -8 81 -10 100 -2 19 -7 62 -10 95 -3 33 -8 78 -10 100 -2 22 -7
72 -10 110 -4 39 -8 81 -10 95 -2 14 -7 60 -10 102 -3 43 -8 86 -9 95 -2 10
-7 52 -11 93 -3 41 -8 91 -10 110 -2 19 -7 67 -10 105 -4 39 -8 81 -10 95 -2
14 -7 59 -10 100 -8 83 -24 123 -58 142 -32 18 -3984 20 -4027 2z m336 -231
c-3 -21 -10 -90 -16 -153 -6 -63 -13 -128 -15 -145 -2 -16 -7 -61 -10 -100 -3
-38 -10 -108 -15 -155 -5 -47 -12 -112 -15 -145 -3 -33 -8 -80 -10 -105 -3
-25 -9 -90 -14 -145 -12 -120 -20 -195 -26 -255 -12 -112 -25 -241 -30 -305
-4 -38 -8 -79 -10 -90 -1 -11 -6 -61 -10 -110 -4 -50 -9 -98 -11 -108 -2 -10
-6 -53 -9 -95 -4 -42 -8 -84 -10 -92 -2 -8 -7 -51 -10 -95 -4 -44 -8 -91 -11
-105 -2 -14 -7 -65 -10 -115 -3 -49 -7 -92 -9 -95 -2 -3 -6 -41 -9 -85 -4 -44
-9 -96 -11 -115 -7 -53 -13 -113 -25 -240 -6 -63 -13 -133 -15 -155 -3 -22
-10 -89 -15 -149 -6 -61 -13 -124 -15 -141 -2 -16 -7 -61 -10 -100 -3 -38 -8
-83 -10 -100 -2 -16 -7 -61 -10 -100 -3 -38 -8 -83 -10 -100 -2 -16 -7 -61
-10 -100 -6 -70 -8 -90 -19 -195 -3 -30 -8 -82 -12 -115 -3 -33 -7 -71 -9 -85
-2 -14 -7 -63 -10 -110 -3 -47 -8 -96 -10 -110 -5 -25 -19 -161 -31 -300 -3
-41 -8 -81 -9 -90 -2 -8 -4 -25 -4 -37 -1 -22 -4 -23 -104 -23 l-104 0 8 57
c4 31 10 91 14 132 3 42 8 87 10 101 2 14 6 57 10 95 3 39 8 84 10 100 2 17 6
62 10 100 3 39 8 85 10 101 2 17 7 64 10 105 4 41 8 85 10 99 1 14 5 52 9 85
3 33 8 85 11 115 13 141 16 167 20 200 3 19 7 62 10 95 3 33 7 80 10 105 3 25
7 72 10 105 3 33 7 76 10 95 2 19 7 64 10 100 3 36 8 81 10 100 2 19 7 62 10
95 3 33 8 80 10 105 3 25 7 72 10 105 3 33 8 76 10 95 2 19 6 64 10 100 3 36
10 101 15 145 5 44 12 114 15 155 3 41 8 86 10 100 2 14 7 59 10 100 3 41 8
86 10 100 2 14 7 59 11 100 3 41 8 86 9 100 2 14 6 59 10 100 4 41 8 86 10
100 2 14 6 59 9 100 4 41 9 86 11 100 2 14 6 54 10 90 3 36 7 85 10 110 2 25
7 72 10 105 3 33 8 76 10 95 2 19 7 62 10 95 3 33 7 78 10 100 2 22 6 69 10
105 4 36 8 83 10 105 2 22 7 64 10 93 3 28 7 76 10 105 3 28 7 70 10 92 2 22
7 69 10 105 5 54 10 95 14 108 1 1 46 2 101 2 l101 0 -5 -37z m549 -30 c-14
-173 -17 -203 -20 -220 -2 -10 -4 -32 -4 -50 -1 -26 -6 -33 -28 -38 -16 -3
-46 -18 -67 -33 -170 -118 -178 -358 -16 -491 41 -34 55 -51 54 -70 0 -32 -14
-207 -19 -241 -2 -14 -7 -63 -10 -110 -4 -47 -8 -101 -10 -120 -3 -34 -14
-149 -20 -220 -2 -19 -6 -73 -10 -120 -3 -47 -8 -96 -10 -110 -2 -14 -6 -68
-10 -120 -3 -52 -8 -106 -10 -120 -3 -14 -7 -61 -10 -105 -3 -44 -7 -93 -9
-110 -2 -16 -7 -72 -11 -124 -4 -51 -9 -101 -10 -110 -2 -9 -4 -32 -5 -51 0
-30 -7 -39 -41 -60 -76 -46 -191 -212 -191 -275 0 -47 11 -94 33 -137 22 -43
90 -114 119 -123 17 -6 23 -14 22 -35 0 -11 -14 -198 -17 -235 -10 -116 -17
-184 -20 -215 -2 -19 -7 -71 -11 -115 -3 -44 -8 -96 -9 -115 -2 -19 -4 -38 -4
-41 -1 -4 -25 -19 -55 -33 -60 -30 -114 -83 -147 -148 -18 -34 -23 -62 -25
-131 -3 -164 41 -258 140 -293 26 -9 31 -16 30 -40 -2 -38 -15 -192 -19 -224
-2 -14 -3 -31 -4 -37 -1 -10 -49 -13 -207 -13 -113 0 -203 3 -201 7 3 5 8 49
11 98 4 50 9 97 11 105 2 8 6 49 10 91 3 42 8 87 10 100 2 13 6 60 10 103 4
43 8 86 10 95 1 9 6 54 10 101 3 47 8 96 10 110 2 14 7 59 10 100 3 41 8 86
10 100 2 14 6 57 10 95 3 39 7 86 10 105 11 100 16 139 20 185 11 135 16 182
20 205 2 14 7 61 10 105 3 44 8 94 10 110 3 17 7 55 10 85 4 47 12 131 40 415
3 28 8 70 11 95 2 25 6 65 9 90 2 25 11 115 19 200 9 85 18 180 21 210 3 30 7
70 9 90 3 19 8 69 11 110 3 41 8 86 10 100 2 14 7 59 10 100 3 41 8 86 10 100
2 14 7 57 10 95 3 39 8 84 10 100 2 17 7 62 10 100 3 39 8 88 10 110 6 53 34
324 41 400 9 104 14 149 19 185 5 32 15 145 32 325 3 39 7 77 9 85 1 8 3 32 3
53 l1 37 175 0 176 0 -6 -67z m680 -25 c-2 -51 -3 -123 -4 -160 l-1 -66 -42
-21 c-57 -28 -91 -60 -127 -117 -26 -41 -34 -67 -45 -159 -4 -26 16 -101 37
-142 23 -44 64 -86 115 -117 l44 -27 -6 -222 c-8 -286 -16 -548 -21 -712 -2
-71 -7 -242 -11 -380 -3 -137 -8 -284 -9 -325 -2 -41 -4 -86 -4 -100 -1 -19
-12 -31 -47 -49 -183 -97 -219 -344 -72 -489 22 -22 53 -46 69 -53 30 -12 31
-14 31 -64 0 -48 -14 -502 -17 -585 -2 -41 -4 -96 -4 -121 -1 -43 -3 -47 -40
-64 -22 -9 -58 -35 -80 -57 -139 -138 -116 -365 47 -472 l55 -36 -3 -97 c-1
-54 -3 -115 -3 -135 l-1 -38 -384 0 c-211 0 -381 3 -379 8 3 4 8 48 12 97 5
50 9 101 10 115 1 14 3 39 4 56 1 28 8 35 56 58 105 52 176 162 176 273 0 112
-42 191 -137 259 -26 19 -40 36 -38 47 1 10 5 55 9 100 3 45 8 93 10 107 2 14
7 63 10 110 4 47 8 101 10 120 2 19 6 73 10 120 4 47 9 94 10 105 1 11 3 30 4
42 1 17 15 29 56 48 67 32 128 99 154 171 27 70 23 171 -9 234 -24 48 -113
140 -136 140 -14 0 -14 10 1 160 2 25 7 77 10 115 3 39 8 90 10 115 3 25 7 77
10 115 3 39 7 90 10 115 2 25 7 77 10 115 3 39 8 93 10 120 11 111 14 144 20
230 4 50 8 101 10 115 4 22 7 64 20 220 3 40 10 114 20 205 1 17 3 47 4 67 1
34 5 38 54 61 62 30 94 57 131 113 35 54 47 96 47 170 0 103 -66 215 -151 259
-23 12 -29 21 -26 38 3 12 8 55 11 95 3 39 7 105 10 145 3 39 8 82 11 95 l4
22 234 0 234 0 -3 -92z m685 5 c0 -49 2 -132 4 -185 l3 -98 -42 -25 c-127 -74
-185 -234 -135 -367 25 -68 87 -139 150 -171 43 -23 44 -25 46 -73 1 -27 4
-157 8 -289 4 -132 9 -296 11 -365 2 -69 7 -224 10 -345 4 -121 8 -267 10
-325 3 -111 7 -304 6 -331 -1 -9 -12 -21 -25 -27 -43 -19 -107 -84 -134 -136
-23 -44 -27 -63 -27 -136 0 -73 4 -92 27 -135 30 -58 97 -124 146 -144 24 -10
32 -20 33 -40 5 -137 8 -230 14 -436 4 -132 8 -259 9 -282 3 -51 0 -55 -40
-76 -42 -21 -101 -82 -124 -127 -20 -39 -38 -124 -34 -156 14 -98 37 -147 95
-203 22 -21 58 -47 80 -56 33 -15 39 -23 40 -49 0 -17 2 -77 4 -133 l4 -103
-380 0 -379 0 4 118 c2 64 5 125 5 134 1 10 16 24 34 32 43 18 104 71 131 116
89 142 39 339 -109 425 -38 23 -42 28 -39 63 1 20 5 150 9 287 12 435 13 457
21 465 5 4 25 13 44 19 49 15 106 65 132 114 18 33 22 59 22 123 0 68 -5 90
-31 146 -29 62 -96 143 -137 165 -20 11 -21 37 -11 358 2 50 6 194 9 320 4
127 9 289 11 360 7 224 18 587 19 657 1 37 4 70 8 73 3 3 17 8 32 11 46 8 71
21 103 54 41 42 62 105 69 205 10 134 -37 234 -141 300 l-52 34 2 58 c2 32 4
104 5 161 l2 102 238 0 238 0 2 -87z m672 80 c0 -5 2 -19 3 -33 4 -44 16 -163
22 -225 10 -106 8 -122 -15 -129 -27 -9 -101 -86 -122 -126 -79 -156 -13 -344
147 -417 49 -23 53 -27 54 -61 1 -20 3 -46 4 -57 1 -11 6 -56 9 -100 4 -44 9
-96 11 -115 2 -19 7 -71 10 -115 3 -44 8 -102 10 -130 3 -27 7 -75 10 -105 3
-30 7 -80 10 -110 2 -30 7 -84 10 -120 3 -36 8 -81 10 -100 2 -19 7 -71 10
-115 3 -44 8 -98 10 -120 3 -22 7 -69 10 -105 2 -36 6 -92 10 -125 29 -304 29
-312 5 -325 -44 -23 -102 -85 -128 -134 -36 -71 -38 -198 -4 -267 31 -64 86
-117 151 -148 31 -14 56 -33 57 -42 5 -77 15 -189 19 -209 2 -14 6 -66 10
-117 3 -51 8 -100 9 -110 2 -10 7 -65 11 -123 4 -58 9 -108 12 -113 2 -4 -7
-11 -20 -16 -13 -5 -42 -28 -65 -50 -155 -154 -113 -403 84 -496 52 -25 54
-27 55 -68 0 -23 2 -49 3 -57 2 -8 6 -55 10 -104 4 -49 9 -93 12 -98 3 -4
-167 -8 -379 -8 l-383 0 -1 43 c0 23 -2 84 -3 136 -2 71 1 96 11 102 156 88
217 252 150 404 -25 57 -81 117 -136 146 -35 18 -45 30 -46 49 0 14 -2 66 -4
115 -2 50 -6 207 -10 349 -3 143 -7 262 -7 265 -2 26 8 39 47 55 137 56 183
231 103 393 -26 54 -128 163 -152 163 -9 0 -16 8 -17 18 0 9 -2 73 -4 142 -2
69 -7 215 -10 325 -5 196 -11 376 -20 685 -2 85 -7 248 -10 361 l-6 206 29 12
c45 19 112 90 139 148 37 80 34 182 -8 264 -24 49 -90 112 -139 134 l-40 18
-1 81 c-1 45 -3 127 -4 184 l-3 102 234 0 c129 0 235 -3 236 -7z m555 -5 c0
-7 3 -40 7 -73 3 -33 8 -82 11 -110 2 -27 7 -73 10 -101 3 -28 8 -68 10 -90 2
-21 6 -73 10 -114 4 -41 9 -83 11 -93 1 -9 6 -54 9 -98 4 -45 8 -89 10 -98 2
-9 6 -54 9 -101 4 -47 9 -96 11 -110 3 -14 7 -56 10 -95 3 -38 7 -81 10 -95 2
-14 6 -59 10 -101 3 -42 8 -87 10 -100 2 -13 6 -55 10 -94 8 -95 25 -262 30
-305 3 -19 7 -64 10 -100 2 -36 7 -81 9 -100 3 -19 8 -66 11 -105 4 -38 8 -83
10 -100 3 -16 7 -57 10 -90 8 -87 15 -163 21 -215 2 -25 7 -70 10 -100 9 -110
32 -333 39 -390 3 -19 7 -62 10 -95 3 -33 7 -80 10 -105 2 -25 7 -74 10 -110
3 -36 8 -81 10 -100 6 -45 12 -108 20 -195 3 -38 8 -83 10 -100 2 -16 7 -61
10 -100 5 -66 9 -100 20 -198 2 -23 7 -69 10 -102 4 -33 8 -76 10 -95 2 -19 7
-64 10 -100 3 -36 7 -81 10 -100 2 -19 7 -69 11 -110 3 -41 8 -83 10 -93 1 -9
6 -54 9 -100 4 -45 10 -110 14 -144 l7 -63 -203 0 -203 0 -1 23 c0 12 -2 31
-4 42 -2 11 -7 56 -10 100 -3 44 -8 92 -11 107 -4 24 1 29 39 46 95 42 132
121 132 277 -1 88 -4 106 -27 151 -31 60 -94 119 -154 146 -32 14 -44 25 -45
41 0 12 -2 31 -4 42 -2 11 -7 58 -10 105 -3 47 -8 96 -10 110 -2 14 -7 66 -11
115 -3 50 -8 97 -9 105 -2 9 -6 59 -10 112 -7 89 -6 96 12 102 31 10 101 85
125 135 34 68 33 197 -2 265 -29 57 -107 130 -155 146 -19 6 -35 15 -36 18 0
4 -2 14 -3 22 -2 8 -6 56 -10 106 -4 50 -9 102 -11 115 -2 13 -6 62 -10 109
-5 84 -11 147 -20 245 -3 28 -7 77 -10 110 -3 33 -7 83 -10 110 -11 114 -14
145 -20 226 -3 46 -8 100 -10 119 -2 19 -7 69 -10 110 -3 41 -7 91 -10 110 -2
19 -7 71 -10 115 -7 88 -12 143 -20 222 -5 51 -5 51 36 80 191 129 177 415
-26 522 -22 12 -45 21 -52 21 -7 0 -13 10 -14 23 0 12 -2 29 -3 37 -2 8 -6 53
-10 100 -3 47 -9 113 -12 148 l-5 62 174 0 c132 0 174 -3 174 -12z m-1783
-508 c40 -15 61 -56 59 -117 -2 -80 -3 -81 -72 -78 -84 5 -115 27 -127 94 -14
73 65 130 140 101z m-710 -51 c13 -6 32 -26 42 -44 49 -92 -67 -189 -150 -124
-94 74 -3 218 108 168z m1436 -4 c43 -22 60 -85 36 -130 -33 -62 -108 -74
-157 -26 -37 38 -42 84 -13 129 27 41 84 53 134 27z m723 -5 c75 -59 34 -180
-62 -180 -41 0 -87 35 -97 75 -9 36 14 93 44 110 38 20 85 18 115 -5z m-2349
-2301 c31 -25 46 -74 33 -112 -22 -66 -110 -89 -161 -42 -39 36 -34 61 26 138
34 43 62 47 102 16z m833 -1 c53 -58 71 -140 38 -164 -19 -14 -83 -18 -120 -8
-29 8 -57 50 -60 91 -3 30 2 42 30 70 40 40 82 44 112 11z m858 -10 c49 -58
63 -120 35 -148 -32 -32 -111 -28 -151 8 -26 24 -32 36 -32 72 0 36 6 48 32
72 43 38 81 37 116 -4z m864 -45 c63 -59 34 -162 -49 -174 -59 -10 -112 38
-113 101 -2 86 99 131 162 73z m-2673 -1271 c60 -48 57 -128 -5 -165 -25 -15
-135 -27 -146 -16 -4 5 -8 77 -6 117 0 13 14 37 30 53 35 34 93 39 127 11z
m2795 -11 c30 -30 33 -43 30 -121 -2 -50 -8 -57 -48 -54 -15 1 -41 3 -56 3
-42 1 -97 59 -93 97 2 16 4 35 5 42 0 7 13 24 27 37 39 36 96 34 135 -4z
m-1872 -37 c30 -21 51 -71 44 -107 -8 -40 -57 -77 -102 -77 -77 0 -123 94 -78
158 12 17 29 33 37 35 35 10 77 6 99 -9z m934 -4 c51 -41 52 -119 1 -159 -84
-66 -202 35 -150 128 28 51 104 67 149 31z"/>
</g>
</svg>
